<svg xmlns="http://www.w3.org/2000/svg" viewBox="0 0 48 48"><defs><style>.cls-6{fill:#f6fafd}</style></defs><g id="_24-mini_heart" data-name="24-mini heart"><path d="m26.524 18.523 8.531 8.513a10.016 10.016 0 0 1 0 14.188l-2.844 2.838a10.07 10.07 0 0 1-14.218 0l-7.11-7.095a3.006 3.006 0 0 1 0-4.256 3.022 3.022 0 0 1 4.266 0l.711.709-2.844-2.837a3.006 3.006 0 0 1 0-4.257 3.022 3.022 0 0 1 4.266 0l2.133 2.128-3.555-3.547a3 3 0 0 1 0-4.256 3.022 3.022 0 0 1 4.266 0l2.843 2.838-9.375-9.351a3 3 0 0 1 0-4.256 3.02 3.02 0 0 1 4.266 0l8.664 8.641" style="fill:#ffdddf"/><path d="m15.86 12.882 8.664 8.641 8.531 8.513a10.013 10.013 0 0 1 2.124 11.051 10.011 10.011 0 0 0-.124-14.051l-8.531-8.513-8.664-8.641a3.02 3.02 0 0 0-4.266 0 2.987 2.987 0 0 0-.867 2.3 3.013 3.013 0 0 1 3.133.7z" style="fill:#fcf1ed"/><path d="M24 9c-.417 0-5-2-5-5.6A2.358 2.358 0 0 1 21.5 1 2.617 2.617 0 0 1 24 3a2.617 2.617 0 0 1 2.5-2A2.358 2.358 0 0 1 29 3.4C29 7 24.833 9 24 9z" style="fill:#f280a0"/><path d="M21 2.4a2.365 2.365 0 0 1 .42-1.394A2.345 2.345 0 0 0 19 3.4C19 7 23.583 9 24 9a5.49 5.49 0 0 0 2.278-1.046A1.322 1.322 0 0 1 26 8c-.417 0-5-2-5-5.6z" style="fill:#f16d8f"/><path d="M29 3.4A2.484 2.484 0 0 0 24.524 2 2.353 2.353 0 0 1 27 4.4a5.735 5.735 0 0 1-2.722 4.554C25.5 8.653 29 6.7 29 3.4z" style="fill:#f89bae"/><ellipse class="cls-6" cx="27.18" cy="3.026" rx=".825" ry="1.148" transform="rotate(-44.529 27.18 3.026)"/><ellipse class="cls-6" cx="26.913" cy="4.524" rx=".413" ry=".574" transform="rotate(-44.529 26.913 4.524)"/><path d="M34 12.44v.73a3 3 0 0 1-1.05 2.27c-1.14 1-1.95 4.55-1.95 7.55l-4.48-4.47L26 18a11.08 11.08 0 0 1 2.89-7.69A2.993 2.993 0 0 1 34 12.44z" style="fill:#fabbc3"/></g></svg>