<svg width='80' viewBox="0 0 207.501 65.803" xmlns="http://www.w3.org/2000/svg"><g id="svgGroup" stroke-linecap="round" fill-rule="evenodd" font-size="9pt" stroke="#000" stroke-width="0.25mm" fill="#000" style="stroke:#000;stroke-width:0.25mm;fill:#000"><path d="M 141.796 48.996 A 3.11 3.11 0 0 0 141.1 50.2 A 13.752 13.752 0 0 1 139.044 54.279 A 16.016 16.016 0 0 1 135.5 57.75 A 15.588 15.588 0 0 1 131.52 59.849 A 17.335 17.335 0 0 1 125.7 60.8 A 13.518 13.518 0 0 1 119.191 59.129 A 18.126 18.126 0 0 1 115.35 56.3 Q 110.6 51.8 108.3 45.4 Q 106 39 106 32.3 A 40.418 40.418 0 0 1 106.655 24.868 A 29.372 29.372 0 0 1 111.8 12.7 A 30.37 30.37 0 0 1 112.075 12.332 Q 113.901 9.923 115.912 8.284 A 14.533 14.533 0 0 1 125.3 4.8 A 24.053 24.053 0 0 1 125.855 4.807 Q 128.451 4.867 129.9 5.5 Q 129.4 6.8 129.4 7.2 A 4.26 4.26 0 0 0 129.482 8.032 Q 129.661 8.936 130.235 9.798 A 7.466 7.466 0 0 0 131.25 11 A 7.416 7.416 0 0 0 132.552 12.025 A 5.013 5.013 0 0 0 135.2 12.8 A 6.646 6.646 0 0 0 135.7 12.782 Q 137.417 12.653 138.25 11.6 Q 139.2 10.4 139.2 8.8 A 9.265 9.265 0 0 0 139.193 8.43 Q 139.028 4.307 135.15 2.2 A 17.463 17.463 0 0 0 130.615 0.517 A 22.397 22.397 0 0 0 125.7 0 A 21.702 21.702 0 0 0 113.996 3.334 A 28.063 28.063 0 0 0 107.75 8.75 Q 100.1 17.5 100.1 33.2 Q 100.1 48.9 107.65 57.35 A 25.361 25.361 0 0 0 115.319 63.291 A 25.078 25.078 0 0 0 126.6 65.8 Q 134.8 65.8 141 60.7 A 32.945 32.945 0 0 0 141.44 60.332 Q 144.679 57.572 146.097 54.87 A 8.917 8.917 0 0 0 147.2 50.7 A 2.772 2.772 0 0 0 146.901 49.447 A 3.633 3.633 0 0 0 146.35 48.65 A 3.429 3.429 0 0 0 145.828 48.17 A 2.282 2.282 0 0 0 144.45 47.7 A 3.04 3.04 0 0 0 143.245 47.955 A 4.097 4.097 0 0 0 142.4 48.45 A 4.294 4.294 0 0 0 141.796 48.996 Z M 48.7 59.6 L 51.2 59.6 A 2.907 2.907 0 0 1 52.152 59.743 Q 53.446 60.191 53.498 62.044 A 5.614 5.614 0 0 1 53.5 62.2 A 4.279 4.279 0 0 1 53.398 63.182 Q 53.085 64.505 51.815 64.747 A 3.293 3.293 0 0 1 51.2 64.8 L 40.2 64.8 A 3.171 3.171 0 0 1 39.222 64.662 Q 37.8 64.201 37.8 62.2 A 4.084 4.084 0 0 1 37.911 61.203 Q 38.239 59.906 39.535 59.659 A 3.552 3.552 0 0 1 40.2 59.6 L 42.5 59.6 L 39.6 50.5 L 12.9 50.5 L 10.1 59.6 L 12.5 59.6 A 3.171 3.171 0 0 1 13.479 59.739 Q 14.9 60.2 14.9 62.2 A 4.084 4.084 0 0 1 14.79 63.198 Q 14.462 64.495 13.165 64.742 A 3.552 3.552 0 0 1 12.5 64.8 L 2.4 64.8 A 3.171 3.171 0 0 1 1.422 64.662 Q 0 64.201 0 62.2 A 4.084 4.084 0 0 1 0.111 61.203 Q 0.439 59.906 1.735 59.659 A 3.552 3.552 0 0 1 2.4 59.6 L 4.9 59.6 L 21.5 6.3 L 17.5 6.3 Q 15.312 6.3 15.206 3.902 A 5.677 5.677 0 0 1 15.2 3.65 Q 15.2 1.354 16.927 1.048 A 3.281 3.281 0 0 1 17.5 1 L 27.8 1 A 5.253 5.253 0 0 1 28.738 1.077 Q 29.223 1.166 29.585 1.355 A 1.847 1.847 0 0 1 30.5 2.4 L 48.7 59.6 Z M 155 59.6 L 155 6.3 L 152.7 6.3 A 3.389 3.389 0 0 1 151.696 6.164 Q 150.2 5.7 150.2 3.65 A 4.264 4.264 0 0 1 150.307 2.65 Q 150.707 1 152.6 1 L 164.5 1 Q 180.6 1.1 190.95 9.55 A 27.525 27.525 0 0 1 200.936 27.804 A 40.068 40.068 0 0 1 201.3 33.3 Q 201.3 48.6 191.05 56.7 Q 181.431 64.302 166.043 64.77 A 67.236 67.236 0 0 1 164 64.8 L 152.6 64.8 A 3.171 3.171 0 0 1 151.622 64.662 Q 150.2 64.201 150.2 62.2 A 4.084 4.084 0 0 1 150.311 61.203 Q 150.639 59.906 151.935 59.659 A 3.552 3.552 0 0 1 152.6 59.6 L 155 59.6 Z M 61.8 59.6 L 61.8 6.3 L 59.4 6.3 Q 57.035 6.3 57.001 3.725 A 5.727 5.727 0 0 1 57 3.65 A 4.264 4.264 0 0 1 57.107 2.65 Q 57.507 1 59.4 1 L 71.1 1 A 53.181 53.181 0 0 1 77.795 1.384 Q 84.756 2.273 87.991 5.223 A 8.616 8.616 0 0 1 90.8 11.9 Q 90.8 15.3 89.2 17.8 Q 87.6 20.3 84.8 21 Q 89.6 22.108 92.995 27.306 A 23.827 23.827 0 0 1 93.55 28.2 A 25.693 25.693 0 0 1 97.095 41.025 A 30.515 30.515 0 0 1 97.1 41.6 A 28.104 28.104 0 0 1 96.02 49.567 A 22.386 22.386 0 0 1 91.25 58.2 Q 86.506 63.553 77.19 64.565 A 42.564 42.564 0 0 1 72.6 64.8 L 59.4 64.8 A 2.227 2.227 0 0 1 57.767 64.119 A 2.813 2.813 0 0 1 57.7 64.05 A 2.581 2.581 0 0 1 57.003 62.337 A 3.357 3.357 0 0 1 57 62.2 A 4.084 4.084 0 0 1 57.111 61.203 Q 57.439 59.906 58.735 59.659 A 3.552 3.552 0 0 1 59.4 59.6 L 61.8 59.6 Z M 160.7 6.8 L 160.7 59.1 Q 160.7 60.3 165.65 60.3 A 34.967 34.967 0 0 0 172.646 59.568 A 42.136 42.136 0 0 0 175.95 58.75 Q 181.3 57.2 185.85 54.15 A 21.039 21.039 0 0 0 192.211 47.366 A 25.523 25.523 0 0 0 193.1 45.75 A 23.433 23.433 0 0 0 195.038 40.153 Q 195.61 37.526 195.753 34.479 A 44.383 44.383 0 0 0 195.8 32.4 Q 195.8 24.4 191.3 17.9 A 27.594 27.594 0 0 0 172.526 6.21 A 43.081 43.081 0 0 0 165.1 5.6 A 24.618 24.618 0 0 0 163.718 5.636 Q 161.776 5.746 161.084 6.196 A 0.717 0.717 0 0 0 160.7 6.8 Z M 74.5 23.6 L 67.5 23.6 L 67.5 59.5 A 0.405 0.405 0 0 0 67.764 59.832 Q 68.514 60.24 71.395 60.293 A 49.417 49.417 0 0 0 72.3 60.3 Q 78.537 60.3 82.707 58.358 A 13.871 13.871 0 0 0 86.7 55.6 A 14.811 14.811 0 0 0 90.262 49.641 Q 91.036 47.287 91.284 44.419 A 32.752 32.752 0 0 0 91.4 41.6 A 28.796 28.796 0 0 0 90.987 36.545 Q 89.999 31.018 86.65 27.95 A 16.367 16.367 0 0 0 77.717 23.824 A 22.418 22.418 0 0 0 74.5 23.6 Z M 26.2 6.7 L 14.2 45.7 L 38.4 45.7 L 26.2 6.7 Z M 67.5 6.2 L 67.5 18.7 L 74.8 18.7 A 32.314 32.314 0 0 0 77.786 18.572 Q 80.776 18.294 82.717 17.412 A 9.089 9.089 0 0 0 82.85 17.35 A 4.654 4.654 0 0 0 85.522 14.061 A 7.262 7.262 0 0 0 85.7 12.4 A 5.748 5.748 0 0 0 82.006 6.913 Q 79.304 5.64 74.628 5.438 A 42.509 42.509 0 0 0 72.8 5.4 Q 68.397 5.4 67.652 5.953 A 0.314 0.314 0 0 0 67.5 6.2 Z M 197.5 60.45 Q 197.5 58.3 198.9 56.95 A 4.767 4.767 0 0 1 201.86 55.627 A 6.379 6.379 0 0 1 202.45 55.6 A 5.64 5.64 0 0 1 204.31 55.897 A 4.876 4.876 0 0 1 206.05 56.95 A 4.487 4.487 0 0 1 207.49 60.087 A 6.084 6.084 0 0 1 207.5 60.45 A 5.157 5.157 0 0 1 207.263 62.05 A 4.183 4.183 0 0 1 206.05 63.9 Q 204.6 65.2 202.45 65.2 A 5.842 5.842 0 0 1 200.77 64.969 A 4.684 4.684 0 0 1 198.9 63.9 A 4.314 4.314 0 0 1 197.538 61.133 A 6.013 6.013 0 0 1 197.5 60.45 Z" vector-effect="non-scaling-stroke"/></g></svg>